# Blender 3.3.1
# www.blender.org
mtllib token-mesh.mtl
o Object
v 0.000000 0.021472 -0.146213
v 0.000000 -0.021472 -0.146213
v 0.109660 0.021472 0.073106
v 0.109660 -0.021472 0.073106
v -0.109660 0.021472 0.073106
v -0.109660 -0.021472 0.073106
vn 0.8944 -0.0000 -0.4472
vn -0.0000 -0.0000 1.0000
vn -0.0000 -1.0000 -0.0000
vn -0.8944 -0.0000 -0.4472
vn -0.0000 1.0000 -0.0000
vt 1.000000 0.500000
vt 0.750000 0.490000
vt -0.000000 0.500000
vt 0.250000 0.490000
vt 1.000000 1.000000
vt -0.000000 1.000000
vt 0.957846 0.130000
vt 0.666667 0.500000
vt 0.457846 0.130000
vt 0.666667 1.000000
vt 0.542154 0.130000
vt 0.333333 0.500000
vt 0.042154 0.130000
vt 0.333333 1.000000
s 0
f 2/5/1 1/1/1 3/8/1
f 4/10/2 3/8/2 5/12/2
f 4/9/3 6/13/3 2/4/3
f 6/14/4 5/12/4 1/3/4
f 1/2/5 5/11/5 3/7/5
f 2/5/1 3/8/1 4/10/1
f 4/10/2 5/12/2 6/14/2
f 6/14/4 1/3/4 2/6/4
